<?xml version="1.0" encoding="UTF-8" standalone="no"?>
<!DOCTYPE svg PUBLIC "-//W3C//DTD SVG 1.1//EN"
 "http://www.w3.org/Graphics/SVG/1.1/DTD/svg11.dtd">
<!-- Generated by graphviz version 2.40.1 (20161225.0304)
 -->
<!-- Title: %0 Pages: 1 -->
<svg width="206pt" height="332pt"
 viewBox="0.00 0.00 206.00 332.00" xmlns="http://www.w3.org/2000/svg" xmlns:xlink="http://www.w3.org/1999/xlink">
<g id="graph0" class="graph" transform="scale(1 1) rotate(0) translate(4 328)">
<title>%0</title>
<polygon fill="#ffffff" stroke="transparent" points="-4,4 -4,-328 202,-328 202,4 -4,4"/>
<!-- 7 -->
<g id="node1" class="node">
<title>7</title>
<ellipse fill="none" stroke="#000000" cx="99" cy="-306" rx="27" ry="18"/>
<text text-anchor="middle" x="99" y="-301.8" font-family="Times,serif" font-size="14.00" fill="#000000">7</text>
</g>
<!-- 5 -->
<g id="node2" class="node">
<title>5</title>
<ellipse fill="none" stroke="#000000" cx="63" cy="-234" rx="27" ry="18"/>
<text text-anchor="middle" x="63" y="-229.8" font-family="Times,serif" font-size="14.00" fill="#000000">5</text>
</g>
<!-- 7&#45;&gt;5 -->
<g id="edge1" class="edge">
<title>7&#45;&gt;5</title>
<path fill="none" stroke="#000000" d="M85.777,-279.554C81.0583,-270.1166 75.8674,-259.7348 71.6343,-251.2687"/>
<polygon fill="#000000" stroke="#000000" points="82.6827,-281.1918 90.2854,-288.5708 88.9437,-278.0613 82.6827,-281.1918"/>
</g>
<!-- 6 -->
<g id="node3" class="node">
<title>6</title>
<ellipse fill="none" stroke="#000000" cx="135" cy="-234" rx="27" ry="18"/>
<text text-anchor="middle" x="135" y="-229.8" font-family="Times,serif" font-size="14.00" fill="#000000">6</text>
</g>
<!-- 7&#45;&gt;6 -->
<g id="edge2" class="edge">
<title>7&#45;&gt;6</title>
<path fill="none" stroke="#000000" d="M112.223,-279.554C116.9417,-270.1166 122.1326,-259.7348 126.3657,-251.2687"/>
<polygon fill="#000000" stroke="#000000" points="109.0563,-278.0613 107.7146,-288.5708 115.3173,-281.1918 109.0563,-278.0613"/>
</g>
<!-- 4 -->
<g id="node4" class="node">
<title>4</title>
<ellipse fill="none" stroke="#000000" cx="99" cy="-162" rx="27" ry="18"/>
<text text-anchor="middle" x="99" y="-157.8" font-family="Times,serif" font-size="14.00" fill="#000000">4</text>
</g>
<!-- 5&#45;&gt;4 -->
<g id="edge3" class="edge">
<title>5&#45;&gt;4</title>
<path fill="none" stroke="#000000" d="M76.223,-207.554C80.9417,-198.1166 86.1326,-187.7348 90.3657,-179.2687"/>
<polygon fill="#000000" stroke="#000000" points="73.0563,-206.0613 71.7146,-216.5708 79.3173,-209.1918 73.0563,-206.0613"/>
</g>
<!-- 2 -->
<g id="node5" class="node">
<title>2</title>
<ellipse fill="none" stroke="#000000" cx="27" cy="-162" rx="27" ry="18"/>
<text text-anchor="middle" x="27" y="-157.8" font-family="Times,serif" font-size="14.00" fill="#000000">2</text>
</g>
<!-- 5&#45;&gt;2 -->
<g id="edge4" class="edge">
<title>5&#45;&gt;2</title>
<path fill="none" stroke="#000000" d="M49.777,-207.554C45.0583,-198.1166 39.8674,-187.7348 35.6343,-179.2687"/>
<polygon fill="#000000" stroke="#000000" points="46.6827,-209.1918 54.2854,-216.5708 52.9437,-206.0613 46.6827,-209.1918"/>
</g>
<!-- 6&#45;&gt;4 -->
<g id="edge5" class="edge">
<title>6&#45;&gt;4</title>
<path fill="none" stroke="#000000" d="M121.777,-207.554C117.0583,-198.1166 111.8674,-187.7348 107.6343,-179.2687"/>
<polygon fill="#000000" stroke="#000000" points="118.6827,-209.1918 126.2854,-216.5708 124.9437,-206.0613 118.6827,-209.1918"/>
</g>
<!-- 3 -->
<g id="node6" class="node">
<title>3</title>
<ellipse fill="none" stroke="#000000" cx="171" cy="-162" rx="27" ry="18"/>
<text text-anchor="middle" x="171" y="-157.8" font-family="Times,serif" font-size="14.00" fill="#000000">3</text>
</g>
<!-- 6&#45;&gt;3 -->
<g id="edge6" class="edge">
<title>6&#45;&gt;3</title>
<path fill="none" stroke="#000000" d="M148.223,-207.554C152.9417,-198.1166 158.1326,-187.7348 162.3657,-179.2687"/>
<polygon fill="#000000" stroke="#000000" points="145.0563,-206.0613 143.7146,-216.5708 151.3173,-209.1918 145.0563,-206.0613"/>
</g>
<!-- 1 -->
<g id="node7" class="node">
<title>1</title>
<ellipse fill="none" stroke="#000000" cx="99" cy="-90" rx="27" ry="18"/>
<text text-anchor="middle" x="99" y="-85.8" font-family="Times,serif" font-size="14.00" fill="#000000">1</text>
</g>
<!-- 2&#45;&gt;1 -->
<g id="edge7" class="edge">
<title>2&#45;&gt;1</title>
<path fill="none" stroke="#000000" d="M49.5883,-139.4117C60.7123,-128.2877 73.8297,-115.1703 83.7527,-105.2473"/>
<polygon fill="#000000" stroke="#000000" points="46.8656,-137.1847 42.2693,-146.7307 51.8153,-142.1344 46.8656,-137.1847"/>
</g>
<!-- 3&#45;&gt;1 -->
<g id="edge8" class="edge">
<title>3&#45;&gt;1</title>
<path fill="none" stroke="#000000" d="M148.4117,-139.4117C137.2877,-128.2877 124.1703,-115.1703 114.2473,-105.2473"/>
<polygon fill="#000000" stroke="#000000" points="146.1847,-142.1344 155.7307,-146.7307 151.1344,-137.1847 146.1847,-142.1344"/>
</g>
<!-- 0 -->
<g id="node8" class="node">
<title>0</title>
<ellipse fill="none" stroke="#000000" cx="99" cy="-18" rx="27" ry="18"/>
<text text-anchor="middle" x="99" y="-13.8" font-family="Times,serif" font-size="14.00" fill="#000000">0</text>
</g>
<!-- 1&#45;&gt;0 -->
<g id="edge9" class="edge">
<title>1&#45;&gt;0</title>
<path fill="none" stroke="#000000" d="M99,-61.5726C99,-53.1084 99,-44.0593 99,-36.4133"/>
<polygon fill="#000000" stroke="#000000" points="95.5001,-61.8313 99,-71.8314 102.5001,-61.8314 95.5001,-61.8313"/>
</g>
</g>
</svg>