<?xml version="1.0" encoding="UTF-8" standalone="no"?>
<!DOCTYPE svg PUBLIC "-//W3C//DTD SVG 1.1//EN"
 "http://www.w3.org/Graphics/SVG/1.1/DTD/svg11.dtd">
<!-- Generated by graphviz version 2.40.1 (20161225.0304)
 -->
<!-- Title: %0 Pages: 1 -->
<svg width="332pt" height="152pt"
 viewBox="0.00 0.00 332.00 152.00" xmlns="http://www.w3.org/2000/svg" xmlns:xlink="http://www.w3.org/1999/xlink">
<g id="graph0" class="graph" transform="scale(1 1) rotate(0) translate(4 148)">
<title>%0</title>
<polygon fill="#ffffff" stroke="transparent" points="-4,4 -4,-148 328,-148 328,4 -4,4"/>
<!-- 7 -->
<g id="node1" class="node">
<title>7</title>
<ellipse fill="none" stroke="#000000" cx="18" cy="-72" rx="18" ry="18"/>
<text text-anchor="middle" x="18" y="-67.8" font-family="Times,serif" font-size="14.00" fill="#000000">7</text>
</g>
<!-- 5 -->
<g id="node2" class="node">
<title>5</title>
<ellipse fill="none" stroke="#000000" cx="90" cy="-99" rx="18" ry="18"/>
<text text-anchor="middle" x="90" y="-94.8" font-family="Times,serif" font-size="14.00" fill="#000000">5</text>
</g>
<!-- 7&#45;&gt;5 -->
<g id="edge1" class="edge">
<title>7&#45;&gt;5</title>
<path fill="none" stroke="#000000" d="M35.063,-78.3986C43.5814,-81.593 54.0773,-85.529 63.6048,-89.1018"/>
<polygon fill="#000000" stroke="#000000" points="62.4672,-92.4132 73.0595,-92.6473 64.9251,-85.8589 62.4672,-92.4132"/>
</g>
<!-- 6 -->
<g id="node3" class="node">
<title>6</title>
<ellipse fill="none" stroke="#000000" cx="90" cy="-45" rx="18" ry="18"/>
<text text-anchor="middle" x="90" y="-40.8" font-family="Times,serif" font-size="14.00" fill="#000000">6</text>
</g>
<!-- 7&#45;&gt;6 -->
<g id="edge2" class="edge">
<title>7&#45;&gt;6</title>
<path fill="none" stroke="#000000" d="M35.063,-65.6014C43.5814,-62.407 54.0773,-58.471 63.6048,-54.8982"/>
<polygon fill="#000000" stroke="#000000" points="64.9251,-58.1411 73.0595,-51.3527 62.4672,-51.5868 64.9251,-58.1411"/>
</g>
<!-- 4 -->
<g id="node4" class="node">
<title>4</title>
<ellipse fill="none" stroke="#000000" cx="162" cy="-72" rx="18" ry="18"/>
<text text-anchor="middle" x="162" y="-67.8" font-family="Times,serif" font-size="14.00" fill="#000000">4</text>
</g>
<!-- 5&#45;&gt;4 -->
<g id="edge3" class="edge">
<title>5&#45;&gt;4</title>
<path fill="none" stroke="#000000" d="M107.063,-92.6014C115.5814,-89.407 126.0773,-85.471 135.6048,-81.8982"/>
<polygon fill="#000000" stroke="#000000" points="136.9251,-85.1411 145.0595,-78.3527 134.4672,-78.5868 136.9251,-85.1411"/>
</g>
<!-- 2 -->
<g id="node5" class="node">
<title>2</title>
<ellipse fill="none" stroke="#000000" cx="162" cy="-126" rx="18" ry="18"/>
<text text-anchor="middle" x="162" y="-121.8" font-family="Times,serif" font-size="14.00" fill="#000000">2</text>
</g>
<!-- 5&#45;&gt;2 -->
<g id="edge4" class="edge">
<title>5&#45;&gt;2</title>
<path fill="none" stroke="#000000" d="M107.063,-105.3986C115.5814,-108.593 126.0773,-112.529 135.6048,-116.1018"/>
<polygon fill="#000000" stroke="#000000" points="134.4672,-119.4132 145.0595,-119.6473 136.9251,-112.8589 134.4672,-119.4132"/>
</g>
<!-- 6&#45;&gt;4 -->
<g id="edge5" class="edge">
<title>6&#45;&gt;4</title>
<path fill="none" stroke="#000000" d="M107.063,-51.3986C115.5814,-54.593 126.0773,-58.529 135.6048,-62.1018"/>
<polygon fill="#000000" stroke="#000000" points="134.4672,-65.4132 145.0595,-65.6473 136.9251,-58.8589 134.4672,-65.4132"/>
</g>
<!-- 3 -->
<g id="node6" class="node">
<title>3</title>
<ellipse fill="none" stroke="#000000" cx="162" cy="-18" rx="18" ry="18"/>
<text text-anchor="middle" x="162" y="-13.8" font-family="Times,serif" font-size="14.00" fill="#000000">3</text>
</g>
<!-- 6&#45;&gt;3 -->
<g id="edge6" class="edge">
<title>6&#45;&gt;3</title>
<path fill="none" stroke="#000000" d="M107.063,-38.6014C115.5814,-35.407 126.0773,-31.471 135.6048,-27.8982"/>
<polygon fill="#000000" stroke="#000000" points="136.9251,-31.1411 145.0595,-24.3527 134.4672,-24.5868 136.9251,-31.1411"/>
</g>
<!-- 1 -->
<g id="node7" class="node">
<title>1</title>
<ellipse fill="none" stroke="#000000" cx="234" cy="-72" rx="18" ry="18"/>
<text text-anchor="middle" x="234" y="-67.8" font-family="Times,serif" font-size="14.00" fill="#000000">1</text>
</g>
<!-- 2&#45;&gt;1 -->
<g id="edge7" class="edge">
<title>2&#45;&gt;1</title>
<path fill="none" stroke="#000000" d="M176.5703,-115.0723C186.5246,-107.6066 199.9158,-97.5632 211.2632,-89.0526"/>
<polygon fill="#000000" stroke="#000000" points="213.5514,-91.7115 219.4514,-82.9115 209.3514,-86.1115 213.5514,-91.7115"/>
</g>
<!-- 3&#45;&gt;1 -->
<g id="edge8" class="edge">
<title>3&#45;&gt;1</title>
<path fill="none" stroke="#000000" d="M176.5703,-28.9277C186.5246,-36.3934 199.9158,-46.4368 211.2632,-54.9474"/>
<polygon fill="#000000" stroke="#000000" points="209.3514,-57.8885 219.4514,-61.0885 213.5514,-52.2885 209.3514,-57.8885"/>
</g>
<!-- 0 -->
<g id="node8" class="node">
<title>0</title>
<ellipse fill="none" stroke="#000000" cx="306" cy="-72" rx="18" ry="18"/>
<text text-anchor="middle" x="306" y="-67.8" font-family="Times,serif" font-size="14.00" fill="#000000">0</text>
</g>
<!-- 1&#45;&gt;0 -->
<g id="edge9" class="edge">
<title>1&#45;&gt;0</title>
<path fill="none" stroke="#000000" d="M252.1686,-72C259.869,-72 269.0257,-72 277.5834,-72"/>
<polygon fill="#000000" stroke="#000000" points="277.5868,-75.5001 287.5867,-72 277.5867,-68.5001 277.5868,-75.5001"/>
</g>
</g>
</svg>