<?xml version="1.0" encoding="UTF-8" standalone="no"?>
<!DOCTYPE svg PUBLIC "-//W3C//DTD SVG 1.1//EN"
 "http://www.w3.org/Graphics/SVG/1.1/DTD/svg11.dtd">
<!-- Generated by graphviz version 2.40.1 (20161225.0304)
 -->
<!-- Title: %0 Pages: 1 -->
<svg width="332pt" height="152pt"
 viewBox="0.00 0.00 332.00 152.00" xmlns="http://www.w3.org/2000/svg" xmlns:xlink="http://www.w3.org/1999/xlink">
<g id="graph0" class="graph" transform="scale(1 1) rotate(0) translate(4 148)">
<title>%0</title>
<polygon fill="#ffffff" stroke="transparent" points="-4,4 -4,-148 328,-148 328,4 -4,4"/>
<!-- 7 -->
<g id="node1" class="node">
<title>7</title>
<ellipse fill="none" stroke="#000000" cx="18" cy="-72" rx="18" ry="18"/>
<text text-anchor="middle" x="18" y="-67.8" font-family="Times,serif" font-size="14.00" fill="#000000">7</text>
</g>
<!-- 5 -->
<g id="node2" class="node">
<title>5</title>
<ellipse fill="none" stroke="#000000" cx="90" cy="-99" rx="18" ry="18"/>
<text text-anchor="middle" x="90" y="-94.8" font-family="Times,serif" font-size="14.00" fill="#000000">5</text>
</g>
<!-- 7&#45;&gt;5 -->
<g id="edge1" class="edge">
<title>7&#45;&gt;5</title>
<path fill="none" stroke="#000000" d="M44.5324,-81.9497C54.0692,-85.5259 64.5602,-89.4601 73.0595,-92.6473"/>
<polygon fill="#000000" stroke="#000000" points="45.6552,-78.6328 35.063,-78.3986 43.1973,-85.1871 45.6552,-78.6328"/>
</g>
<!-- 6 -->
<g id="node3" class="node">
<title>6</title>
<ellipse fill="none" stroke="#000000" cx="90" cy="-45" rx="18" ry="18"/>
<text text-anchor="middle" x="90" y="-40.8" font-family="Times,serif" font-size="14.00" fill="#000000">6</text>
</g>
<!-- 7&#45;&gt;6 -->
<g id="edge2" class="edge">
<title>7&#45;&gt;6</title>
<path fill="none" stroke="#000000" d="M44.5324,-62.0503C54.0692,-58.4741 64.5602,-54.5399 73.0595,-51.3527"/>
<polygon fill="#000000" stroke="#000000" points="43.1973,-58.8129 35.063,-65.6014 45.6552,-65.3672 43.1973,-58.8129"/>
</g>
<!-- 4 -->
<g id="node4" class="node">
<title>4</title>
<ellipse fill="none" stroke="#000000" cx="162" cy="-72" rx="18" ry="18"/>
<text text-anchor="middle" x="162" y="-67.8" font-family="Times,serif" font-size="14.00" fill="#000000">4</text>
</g>
<!-- 5&#45;&gt;4 -->
<g id="edge3" class="edge">
<title>5&#45;&gt;4</title>
<path fill="none" stroke="#000000" d="M116.5324,-89.0503C126.0692,-85.4741 136.5602,-81.5399 145.0595,-78.3527"/>
<polygon fill="#000000" stroke="#000000" points="115.1973,-85.8129 107.063,-92.6014 117.6552,-92.3672 115.1973,-85.8129"/>
</g>
<!-- 2 -->
<g id="node5" class="node">
<title>2</title>
<ellipse fill="none" stroke="#000000" cx="162" cy="-126" rx="18" ry="18"/>
<text text-anchor="middle" x="162" y="-121.8" font-family="Times,serif" font-size="14.00" fill="#000000">2</text>
</g>
<!-- 5&#45;&gt;2 -->
<g id="edge4" class="edge">
<title>5&#45;&gt;2</title>
<path fill="none" stroke="#000000" d="M116.5324,-108.9497C126.0692,-112.5259 136.5602,-116.4601 145.0595,-119.6473"/>
<polygon fill="#000000" stroke="#000000" points="117.6552,-105.6328 107.063,-105.3986 115.1973,-112.1871 117.6552,-105.6328"/>
</g>
<!-- 6&#45;&gt;4 -->
<g id="edge5" class="edge">
<title>6&#45;&gt;4</title>
<path fill="none" stroke="#000000" d="M116.5324,-54.9497C126.0692,-58.5259 136.5602,-62.4601 145.0595,-65.6473"/>
<polygon fill="#000000" stroke="#000000" points="117.6552,-51.6328 107.063,-51.3986 115.1973,-58.1871 117.6552,-51.6328"/>
</g>
<!-- 3 -->
<g id="node6" class="node">
<title>3</title>
<ellipse fill="none" stroke="#000000" cx="162" cy="-18" rx="18" ry="18"/>
<text text-anchor="middle" x="162" y="-13.8" font-family="Times,serif" font-size="14.00" fill="#000000">3</text>
</g>
<!-- 6&#45;&gt;3 -->
<g id="edge6" class="edge">
<title>6&#45;&gt;3</title>
<path fill="none" stroke="#000000" d="M116.5324,-35.0503C126.0692,-31.4741 136.5602,-27.5399 145.0595,-24.3527"/>
<polygon fill="#000000" stroke="#000000" points="115.1973,-31.8129 107.063,-38.6014 117.6552,-38.3672 115.1973,-31.8129"/>
</g>
<!-- 1 -->
<g id="node7" class="node">
<title>1</title>
<ellipse fill="none" stroke="#000000" cx="234" cy="-72" rx="18" ry="18"/>
<text text-anchor="middle" x="234" y="-67.8" font-family="Times,serif" font-size="14.00" fill="#000000">1</text>
</g>
<!-- 2&#45;&gt;1 -->
<g id="edge7" class="edge">
<title>2&#45;&gt;1</title>
<path fill="none" stroke="#000000" d="M184.7616,-108.9288C196.1119,-100.4161 209.5021,-90.3734 219.4514,-82.9115"/>
<polygon fill="#000000" stroke="#000000" points="182.4703,-106.2722 176.5703,-115.0723 186.6703,-111.8723 182.4703,-106.2722"/>
</g>
<!-- 3&#45;&gt;1 -->
<g id="edge8" class="edge">
<title>3&#45;&gt;1</title>
<path fill="none" stroke="#000000" d="M184.7616,-35.0712C196.1119,-43.5839 209.5021,-53.6266 219.4514,-61.0885"/>
<polygon fill="#000000" stroke="#000000" points="186.6703,-32.1277 176.5703,-28.9277 182.4703,-37.7278 186.6703,-32.1277"/>
</g>
<!-- 0 -->
<g id="node8" class="node">
<title>0</title>
<ellipse fill="none" stroke="#000000" cx="306" cy="-72" rx="18" ry="18"/>
<text text-anchor="middle" x="306" y="-67.8" font-family="Times,serif" font-size="14.00" fill="#000000">0</text>
</g>
<!-- 1&#45;&gt;0 -->
<g id="edge9" class="edge">
<title>1&#45;&gt;0</title>
<path fill="none" stroke="#000000" d="M262.4274,-72C270.8916,-72 279.9407,-72 287.5867,-72"/>
<polygon fill="#000000" stroke="#000000" points="262.1687,-68.5001 252.1686,-72 262.1686,-75.5001 262.1687,-68.5001"/>
</g>
</g>
</svg>